<svg version="1.0" xmlns="http://www.w3.org/2000/svg" width="272" height="294.667" viewBox="0 0 204 221"><path d="M102.3 30.8c-2 1.3-7.7 12.1-40.5 77.2-17.7 34.9-32.4 63.9-32.8 64.5-.4.5-2.6 5.3-4.9 10.6-3.6 8.3-4 9.9-3 12.1.8 1.8 2.2 2.7 4.8 3.2 2 .3 38.2.6 80.4.6 84.3 0 83.7 0 83.7-5.6 0-3.3-75.6-153.3-80.7-160.2-2.3-3.1-4.6-3.9-7-2.4m6.6 12.5c4.2 9.1 17 34.6 31.9 63.7 6.3 12.4 12 23.4 12.5 24.5.6 1.1 1.5 2.9 2 4 .6 1.1 6.3 12.3 12.7 25 13.8 27.2 15.3 29.9 16.3 30.3 4.1 1.9-8.1 2.2-78.8 2.2-43.7 0-79.5-.2-79.5-.5 0-.2.9-2.1 2.1-4.2 2.9-5.2 4.3-8 14.6-28.8 9.9-19.9 10.4-20.9 12.3-24.4 6.9-13.3 46-91.6 47.3-94.9.9-2.3 2-4.2 2.4-4.2.5 0 2.3 3.3 4.2 7.3"/></svg>