<svg version="1.0" xmlns="http://www.w3.org/2000/svg" width="400" height="121.333" viewBox="0 0 300 91" fill="#fff"><path d="M28 33.1c-6.2 2.5-10 8.5-10 15.7 0 9 7.2 16.2 16.2 16.2 9.5 0 16-5.7 17.3-15.3l.7-4.8-8.7.3-8.8.3-.2 3.2-.3 3.3h4.9c2.7 0 4.9.4 4.9.8 0 .5-1.2 1.9-2.6 3.3-3.6 3.3-10.2 3.4-13.8 0-5.2-4.9-4-13.3 2.4-16.6 3.9-2 5.8-1.9 9.9.6 3.1 1.8 3.5 1.9 5.7.4 3.3-2.2 3-3-1.9-6-4.7-2.7-11-3.2-15.7-1.4m30 15.4V65h7V38h3.9c4.5 0 6.4 1.8 5.9 5.7-.2 2.3-.8 2.9-3.5 3.1-2.9.3-3.3.7-3.3 3.3 0 1.9 1.5 5.3 4 8.8 3.4 5.1 4.4 5.9 7.7 6.3 2.1.3 4 .4 4.2.2.2-.1-1.6-2.9-3.8-6.2l-4.2-5.9 3-3.1c3.4-3.3 4.1-8 1.9-12.7C79 33.4 75.1 32 66 32h-8zm46.4-15.3c-2.7 3.4-16.4 31-15.9 31.8.4.6 7.5 1 17.1 1 14.2 0 16.4-.2 16.4-1.6 0-1.6-12.8-27.4-15.3-30.7-1.1-1.5-1.5-1.6-2.3-.5M120 63.7c0 .2-6.5.3-14.5.3S91 63.8 91 63.5s3.2-6.9 7.1-14.7l7.1-14.2 7.4 14.4c4 8 7.4 14.6 7.4 14.7m9.5-15.2V65h6.5V38h4c3.1 0 4.3.5 5.5 2.4 2.1 3.2.5 6.6-3 6.6-2.2 0-2.5.4-2.5 3.5 0 4 1.1 4.3 6.4 2.1 4.4-1.8 6.6-5.2 6.6-9.9 0-8-4-10.7-15.7-10.7h-7.8zm32.5 0V65h7.2l-.4-6.2-.3-6.2 6.8-.1 6.7-.2v13.3l3.3-.4 3.2-.4V32H182v14h-13.6l.4-7 .4-7H162zM199 35v3h22v-6h-22zm34-1.9-2.5.9v31h21.3l.4-3 .5-3H237V45.5c0-7.4-.3-13.5-.7-13.4-.5 0-1.9.5-3.3 1m29.8.1-2.8 1V65h22v-6h-15V45.5c0-7.4-.3-13.5-.7-13.4-.5 0-2 .5-3.5 1.1M199 48.7V52h22.1l-.3-3.1-.3-3.1-10.8-.2-10.7-.1zm0 13.3v3h22v-6h-22z"/></svg>